<svg xmlns="http://www.w3.org/2000/svg" xmlns:xlink="http://www.w3.org/1999/xlink" width="500" zoomAndPan="magnify" viewBox="0 0 375 374.999991" height="500" preserveAspectRatio="xMidYMid meet" version="1.0"><defs><g/><clipPath id="0932238986"><path d="M 229 67.332031 L 237 67.332031 L 237 75 L 229 75 Z M 229 67.332031 " clip-rule="nonzero"/></clipPath><clipPath id="757930f5fb"><path d="M 255 93 L 262.890625 93 L 262.890625 101 L 255 101 Z M 255 93 " clip-rule="nonzero"/></clipPath><clipPath id="1f807a3cae"><path d="M 255 105 L 262.890625 105 L 262.890625 114 L 255 114 Z M 255 105 " clip-rule="nonzero"/></clipPath><clipPath id="1260050dd3"><path d="M 237 219 L 245 219 L 245 226.332031 L 237 226.332031 Z M 237 219 " clip-rule="nonzero"/></clipPath><clipPath id="09f89fafe4"><path d="M 142 67.332031 L 150 67.332031 L 150 75 L 142 75 Z M 142 67.332031 " clip-rule="nonzero"/></clipPath><clipPath id="ffbf3dab1e"><path d="M 116.640625 93 L 125 93 L 125 101 L 116.640625 101 Z M 116.640625 93 " clip-rule="nonzero"/></clipPath><clipPath id="2306d2e441"><path d="M 116.640625 105 L 125 105 L 125 114 L 116.640625 114 Z M 116.640625 105 " clip-rule="nonzero"/></clipPath><clipPath id="cd3adcb75c"><path d="M 135 219 L 143 219 L 143 226.332031 L 135 226.332031 Z M 135 219 " clip-rule="nonzero"/></clipPath></defs><rect x="-37.5" width="450" fill="#ffffff" y="-37.499999" height="449.999989" fill-opacity="1"/><rect x="-37.5" width="450" fill="#ffffff" y="-37.499999" height="449.999989" fill-opacity="1"/><g fill="#0532ff" fill-opacity="1"><g transform="translate(55.854958, 282.059253)"><g><path d="M 18.433594 -32.539062 L 18.433594 -25.511719 C 20.574219 -25.136719 21.414062 -23.789062 21.414062 -22.34375 L 21.414062 -22.160156 L 31.050781 -22.160156 L 31.050781 -22.71875 C 30.910156 -29.09375 25.464844 -32.167969 18.433594 -32.539062 Z M 13.035156 -32.308594 C 7.167969 -31.46875 2.515625 -28.488281 2.515625 -22.34375 C 2.515625 -9.867188 21.414062 -13.546875 21.414062 -8.9375 L 21.414062 0.324219 C 27.605469 -0.558594 31.933594 -3.863281 31.933594 -10.613281 C 31.703125 -22.484375 13.035156 -18.714844 13.035156 -23.507812 Z M 16.015625 -6.796875 C 13.359375 -6.9375 11.730469 -7.726562 11.730469 -10.847656 L 2 -10.847656 C 2 -2.328125 7.960938 0.234375 16.015625 0.511719 Z M 16.015625 -6.796875 "/></g></g></g><g fill="#0532ff" fill-opacity="1"><g transform="translate(89.462968, 282.059253)"><g><path d="M 12.617188 -0.324219 L 12.617188 -31.703125 C 5.867188 -29.746094 2.09375 -24.441406 2.09375 -16.015625 C 2.09375 -7.589844 5.867188 -2.28125 12.617188 -0.324219 Z M 18.015625 -24.8125 C 18.433594 -24.859375 18.898438 -24.90625 19.367188 -24.90625 C 23.882812 -24.90625 26.164062 -21.878906 26.164062 -17.503906 L 26.164062 -14.523438 C 26.164062 -10.148438 23.882812 -7.121094 19.367188 -7.121094 C 18.898438 -7.121094 18.433594 -7.167969 18.015625 -7.214844 L 18.015625 0.511719 C 18.433594 0.558594 18.898438 0.558594 19.367188 0.558594 C 30.304688 0.558594 36.683594 -5.074219 36.683594 -16.015625 C 36.683594 -26.953125 30.304688 -32.585938 19.367188 -32.585938 L 18.015625 -32.585938 Z M 18.015625 -24.8125 "/></g></g></g><g fill="#0532ff" fill-opacity="1"><g transform="translate(128.237861, 282.059253)"><g><path d="M 13.734375 0 L 13.734375 -32.027344 L 3.445312 -32.027344 L 3.445312 0 Z M 19.132812 0 L 30.164062 0 L 30.164062 -8.191406 L 19.132812 -8.191406 Z M 19.132812 0 "/></g></g></g><g fill="#0532ff" fill-opacity="1"><g transform="translate(159.285705, 282.059253)"><g><path d="M 14.199219 -32.027344 L 3.910156 -32.027344 L 3.910156 0 L 14.199219 0 Z M 14.199219 -32.027344 "/></g></g></g><g fill="#000000" fill-opacity="1"><g transform="translate(160.448608, 309.388516)"><g><path d="M 11.796875 -6.296875 C 11.796875 -4.265625 11.21875 -2.707031 10.0625 -1.625 C 8.90625 -0.539062 7.234375 0 5.046875 0 L 1.546875 0 L 1.546875 -12.34375 L 5.4375 -12.34375 C 7.445312 -12.34375 9.007812 -11.8125 10.125 -10.75 C 11.238281 -9.6875 11.796875 -8.203125 11.796875 -6.296875 Z M 9.078125 -6.21875 C 9.078125 -8.875 7.90625 -10.203125 5.5625 -10.203125 L 4.171875 -10.203125 L 4.171875 -2.15625 L 5.296875 -2.15625 C 7.816406 -2.15625 9.078125 -3.507812 9.078125 -6.21875 Z M 9.078125 -6.21875 "/></g></g></g><g fill="#000000" fill-opacity="1"><g transform="translate(173.243674, 309.388516)"><g><path d="M 6.78125 0 L 3.8125 -9.6875 L 3.734375 -9.6875 C 3.835938 -7.71875 3.890625 -6.40625 3.890625 -5.75 L 3.890625 0 L 1.546875 0 L 1.546875 -12.34375 L 5.125 -12.34375 L 8.046875 -2.90625 L 8.09375 -2.90625 L 11.1875 -12.34375 L 14.75 -12.34375 L 14.75 0 L 12.3125 0 L 12.3125 -5.84375 C 12.3125 -6.125 12.316406 -6.441406 12.328125 -6.796875 C 12.335938 -7.160156 12.375 -8.117188 12.4375 -9.671875 L 12.359375 -9.671875 L 9.1875 0 Z M 6.78125 0 "/></g></g></g><g fill="#000000" fill-opacity="1"><g transform="translate(189.541353, 309.388516)"><g><path d="M 7.140625 0 L 4.53125 0 L 4.53125 -7.140625 L 4.5625 -8.3125 L 4.609375 -9.609375 C 4.171875 -9.171875 3.867188 -8.882812 3.703125 -8.75 L 2.28125 -7.609375 L 1.015625 -9.1875 L 5 -12.34375 L 7.140625 -12.34375 Z M 7.140625 0 "/></g></g></g><g fill="#000000" fill-opacity="1"><g transform="translate(199.407739, 309.388516)"><g><path d="M 9.25 -6.171875 C 9.25 -4.015625 8.894531 -2.414062 8.1875 -1.375 C 7.488281 -0.34375 6.40625 0.171875 4.9375 0.171875 C 3.507812 0.171875 2.429688 -0.363281 1.703125 -1.4375 C 0.984375 -2.507812 0.625 -4.085938 0.625 -6.171875 C 0.625 -8.347656 0.972656 -9.953125 1.671875 -10.984375 C 2.378906 -12.023438 3.46875 -12.546875 4.9375 -12.546875 C 6.351562 -12.546875 7.425781 -12.003906 8.15625 -10.921875 C 8.882812 -9.835938 9.25 -8.253906 9.25 -6.171875 Z M 3.21875 -6.171875 C 3.21875 -4.660156 3.347656 -3.578125 3.609375 -2.921875 C 3.867188 -2.265625 4.3125 -1.9375 4.9375 -1.9375 C 5.539062 -1.9375 5.976562 -2.265625 6.25 -2.921875 C 6.519531 -3.585938 6.65625 -4.671875 6.65625 -6.171875 C 6.65625 -7.691406 6.519531 -8.78125 6.25 -9.4375 C 5.976562 -10.101562 5.539062 -10.4375 4.9375 -10.4375 C 4.320312 -10.4375 3.878906 -10.101562 3.609375 -9.4375 C 3.347656 -8.78125 3.21875 -7.691406 3.21875 -6.171875 Z M 3.21875 -6.171875 "/></g></g></g><g fill="#000000" fill-opacity="1"><g transform="translate(209.274125, 309.388516)"><g><path d="M 7.140625 0 L 4.53125 0 L 4.53125 -7.140625 L 4.5625 -8.3125 L 4.609375 -9.609375 C 4.171875 -9.171875 3.867188 -8.882812 3.703125 -8.75 L 2.28125 -7.609375 L 1.015625 -9.1875 L 5 -12.34375 L 7.140625 -12.34375 Z M 7.140625 0 "/></g></g></g><path stroke-linecap="round" transform="matrix(0.0624174, 0, 0, -0.0624174, 57.103086, 279.677149)" fill="none" stroke-linejoin="round" d="M 1922.892717 1872.559927 L 2326.864272 1872.559927 L 2326.864272 2276.594064 L 1922.892717 2276.594064 Z M 1922.892717 1872.559927 " stroke="#181821" stroke-width="28" stroke-opacity="1" stroke-miterlimit="10"/><path stroke-linecap="round" transform="matrix(0.0624174, 0, 0, -0.0624174, 57.103086, 279.677149)" fill="none" stroke-linejoin="round" d="M 2450.715504 2088.282614 L 2450.715504 2452.013471 L 2725.453711 2726.751678 L 3162.656699 2726.751678 " stroke="#181821" stroke-width="28" stroke-opacity="1" stroke-miterlimit="10"/><path stroke-linecap="round" transform="matrix(0.0624174, 0, 0, -0.0624174, 57.103086, 279.677149)" fill="none" stroke-linejoin="round" d="M 2326.864272 2088.282614 L 2806.686102 2088.282614 L 2806.686102 2482.929342 L 3031.10779 2482.929342 " stroke="#181821" stroke-width="28" stroke-opacity="1" stroke-miterlimit="10"/><path stroke-linecap="round" transform="matrix(0.0624174, 0, 0, -0.0624174, 57.103086, 279.677149)" fill="none" stroke-linejoin="round" d="M 2388.758597 2088.282614 L 2806.686102 1656.837239 L 2976.911141 1656.837239 " stroke="#181821" stroke-width="28" stroke-opacity="1" stroke-miterlimit="10"/><path stroke-linecap="round" transform="matrix(0.0624174, 0, 0, -0.0624174, 57.103086, 279.677149)" fill="none" stroke-linejoin="round" d="M 2609.988565 1859.980797 L 2609.988565 1345.425549 L 2938.172428 1345.425549 " stroke="#181821" stroke-width="28" stroke-opacity="1" stroke-miterlimit="10"/><path stroke-linecap="round" transform="matrix(0.0624174, 0, 0, -0.0624174, 57.103086, 279.677149)" fill="none" stroke-linejoin="round" d="M 2328.616588 1872.559927 L 2328.616588 1306.686836 L 2572.814421 1062.551586 " stroke="#181821" stroke-width="28" stroke-opacity="1" stroke-miterlimit="10"/><path stroke-linecap="round" transform="matrix(0.0624174, 0, 0, -0.0624174, 57.103086, 279.677149)" fill="none" stroke-linejoin="round" d="M 2326.864272 2276.594064 L 2326.864272 2962.125344 " stroke="#181821" stroke-width="28" stroke-opacity="1" stroke-miterlimit="10"/><path stroke-linecap="round" transform="matrix(0.0624174, 0, 0, -0.0624174, 57.103086, 279.677149)" fill="none" stroke-linejoin="round" d="M 2737.031517 1345.425549 L 2737.031517 1113.181019 L 2907.256557 942.95598 " stroke="#181821" stroke-width="28" stroke-opacity="1" stroke-miterlimit="10"/><path stroke-linecap="round" transform="matrix(0.0624174, 0, 0, -0.0624174, 57.103086, 279.677149)" fill="none" stroke-linejoin="round" d="M 2774.080497 2726.751678 L 2979.351868 2931.960466 L 3162.656699 2931.960466 " stroke="#181821" stroke-width="28" stroke-opacity="1" stroke-miterlimit="10"/><path stroke-linecap="round" transform="matrix(0.0624174, 0, 0, -0.0624174, 57.103086, 279.677149)" fill="none" stroke-linejoin="round" d="M 2370.734769 3005.995841 C 2370.734769 2981.776323 2351.146373 2962.125344 2326.864272 2962.125344 C 2302.644753 2962.125344 2283.056357 2981.776323 2283.056357 3005.995841 C 2283.056357 3030.21536 2302.644753 3049.866339 2326.864272 3049.866339 C 2351.146373 3049.866339 2370.734769 3030.21536 2370.734769 3005.995841 Z M 2370.734769 3005.995841 " stroke="#181821" stroke-width="28" stroke-opacity="1" stroke-miterlimit="10"/><g clip-path="url(#0932238986)"><path stroke-linecap="round" transform="matrix(0.0624174, 0, 0, -0.0624174, 57.103086, 279.677149)" fill="none" stroke-linejoin="round" d="M 2866.077117 3344.568438 C 2866.077117 3320.286337 2846.363556 3300.697941 2822.144037 3300.697941 C 2797.924519 3300.697941 2778.27354 3320.286337 2778.27354 3344.568438 C 2778.27354 3368.787957 2797.924519 3388.376353 2822.144037 3388.376353 C 2846.363556 3388.376353 2866.077117 3368.787957 2866.077117 3344.568438 Z M 2866.077117 3344.568438 " stroke="#181821" stroke-width="28" stroke-opacity="1" stroke-miterlimit="10"/></g><g clip-path="url(#757930f5fb)"><path stroke-linecap="round" transform="matrix(0.0624174, 0, 0, -0.0624174, 57.103086, 279.677149)" fill="none" stroke-linejoin="round" d="M 3280.06191 2931.8353 C 3280.06191 2907.615782 3260.410931 2887.964803 3236.191412 2887.964803 C 3211.909311 2887.964803 3192.320915 2907.615782 3192.320915 2931.8353 C 3192.320915 2955.992236 3211.909311 2975.643215 3236.191412 2975.643215 C 3260.410931 2975.643215 3280.06191 2955.992236 3280.06191 2931.8353 Z M 3280.06191 2931.8353 " stroke="#181821" stroke-width="28" stroke-opacity="1" stroke-miterlimit="10"/></g><g clip-path="url(#1f807a3cae)"><path stroke-linecap="round" transform="matrix(0.0624174, 0, 0, -0.0624174, 57.103086, 279.677149)" fill="none" stroke-linejoin="round" d="M 3280.06191 2726.751678 C 3280.06191 2702.532159 3260.410931 2682.88118 3236.191412 2682.88118 C 3211.909311 2682.88118 3192.320915 2702.532159 3192.320915 2726.751678 C 3192.320915 2750.971196 3211.909311 2770.622175 3236.191412 2770.622175 C 3260.410931 2770.622175 3280.06191 2750.971196 3280.06191 2726.751678 Z M 3280.06191 2726.751678 " stroke="#181821" stroke-width="28" stroke-opacity="1" stroke-miterlimit="10"/></g><path stroke-linecap="round" transform="matrix(0.0624174, 0, 0, -0.0624174, 57.103086, 279.677149)" fill="none" stroke-linejoin="round" d="M 3148.450418 2482.929342 C 3148.450418 2458.709823 3128.862022 2439.121427 3104.579921 2439.121427 C 3080.360402 2439.121427 3060.772006 2458.709823 3060.772006 2482.929342 C 3060.772006 2507.211443 3080.360402 2526.862422 3104.579921 2526.862422 C 3128.862022 2526.862422 3148.450418 2507.211443 3148.450418 2482.929342 Z M 3148.450418 2482.929342 " stroke="#181821" stroke-width="28" stroke-opacity="1" stroke-miterlimit="10"/><path stroke-linecap="round" transform="matrix(0.0624174, 0, 0, -0.0624174, 57.103086, 279.677149)" fill="none" stroke-linejoin="round" d="M 3043.812085 1345.425549 C 3043.812085 1321.143448 3024.161106 1301.555052 2999.941588 1301.555052 C 2975.722069 1301.555052 2956.07109 1321.143448 2956.07109 1345.425549 C 2956.07109 1369.645067 2975.722069 1389.296046 2999.941588 1389.296046 C 3024.161106 1389.296046 3043.812085 1369.645067 3043.812085 1345.425549 Z M 3043.812085 1345.425549 " stroke="#181821" stroke-width="28" stroke-opacity="1" stroke-miterlimit="10"/><path stroke-linecap="round" transform="matrix(0.0624174, 0, 0, -0.0624174, 57.103086, 279.677149)" fill="none" stroke-linejoin="round" d="M 3064.714718 1656.837239 C 3064.714718 1632.61772 3045.06374 1612.966741 3020.781638 1612.966741 C 2996.56212 1612.966741 2976.911141 1632.61772 2976.911141 1656.837239 C 2976.911141 1681.11934 2996.56212 1700.770319 3020.781638 1700.770319 C 3045.06374 1700.770319 3064.714718 1681.11934 3064.714718 1656.837239 Z M 3064.714718 1656.837239 " stroke="#181821" stroke-width="28" stroke-opacity="1" stroke-miterlimit="10"/><g clip-path="url(#1260050dd3)"><path stroke-linecap="round" transform="matrix(0.0624174, 0, 0, -0.0624174, 57.103086, 279.677149)" fill="none" stroke-linejoin="round" d="M 2988.55153 907.471569 C 2988.55153 883.189468 2968.900551 863.601072 2944.681032 863.601072 C 2920.461514 863.601072 2900.810535 883.189468 2900.810535 907.471569 C 2900.810535 931.691087 2920.461514 951.342066 2944.681032 951.342066 C 2968.900551 951.342066 2988.55153 931.691087 2988.55153 907.471569 Z M 2988.55153 907.471569 " stroke="#181821" stroke-width="28" stroke-opacity="1" stroke-miterlimit="10"/></g><path stroke-linecap="round" transform="matrix(0.0624174, 0, 0, -0.0624174, 57.103086, 279.677149)" fill="none" stroke-linejoin="round" d="M 2643.532911 1018.618506 C 2643.532911 994.398988 2623.881932 974.748009 2599.662414 974.748009 C 2575.442895 974.748009 2555.791917 994.398988 2555.791917 1018.618506 C 2555.791917 1042.900608 2575.442895 1062.551586 2599.662414 1062.551586 C 2623.881932 1062.551586 2643.532911 1042.900608 2643.532911 1018.618506 Z M 2643.532911 1018.618506 " stroke="#181821" stroke-width="28" stroke-opacity="1" stroke-miterlimit="10"/><path stroke-linecap="round" transform="matrix(0.0624174, 0, 0, -0.0624174, 57.103086, 279.677149)" fill="none" stroke-linejoin="round" d="M 2326.864272 2642.890813 L 2632.205436 2948.231977 L 2632.205436 3153.628514 L 2789.100353 3310.52343 " stroke="#181821" stroke-width="28" stroke-opacity="1" stroke-miterlimit="10"/><path stroke-linecap="round" transform="matrix(0.0624174, 0, 0, -0.0624174, 57.103086, 279.677149)" fill="none" stroke-linejoin="round" d="M 1801.294463 2088.282614 L 1801.294463 2452.013471 L 1526.556256 2726.751678 L 1089.353268 2726.751678 " stroke="#181821" stroke-width="28" stroke-opacity="1" stroke-miterlimit="10"/><path stroke-linecap="round" transform="matrix(0.0624174, 0, 0, -0.0624174, 57.103086, 279.677149)" fill="none" stroke-linejoin="round" d="M 1925.145695 2088.282614 L 1445.323866 2088.282614 L 1445.323866 2482.929342 L 1220.902178 2482.929342 " stroke="#181821" stroke-width="28" stroke-opacity="1" stroke-miterlimit="10"/><path stroke-linecap="round" transform="matrix(0.0624174, 0, 0, -0.0624174, 57.103086, 279.677149)" fill="none" stroke-linejoin="round" d="M 1863.188788 2088.282614 L 1445.323866 1656.837239 L 1275.036243 1656.837239 " stroke="#181821" stroke-width="28" stroke-opacity="1" stroke-miterlimit="10"/><path stroke-linecap="round" transform="matrix(0.0624174, 0, 0, -0.0624174, 57.103086, 279.677149)" fill="none" stroke-linejoin="round" d="M 1642.083985 1859.980797 L 1642.083985 1345.425549 L 1313.774956 1345.425549 " stroke="#181821" stroke-width="28" stroke-opacity="1" stroke-miterlimit="10"/><path stroke-linecap="round" transform="matrix(0.0624174, 0, 0, -0.0624174, 57.103086, 279.677149)" fill="none" stroke-linejoin="round" d="M 1923.330796 1872.559927 L 1923.330796 1306.686836 L 1679.195546 1062.551586 " stroke="#181821" stroke-width="28" stroke-opacity="1" stroke-miterlimit="10"/><path stroke-linecap="round" transform="matrix(0.0624174, 0, 0, -0.0624174, 57.103086, 279.677149)" fill="none" stroke-linejoin="round" d="M 1925.145695 2276.594064 L 1925.145695 2962.125344 " stroke="#181821" stroke-width="28" stroke-opacity="1" stroke-miterlimit="10"/><path stroke-linecap="round" transform="matrix(0.0624174, 0, 0, -0.0624174, 57.103086, 279.677149)" fill="none" stroke-linejoin="round" d="M 1514.97845 1345.425549 L 1514.97845 1113.181019 L 1344.690828 942.95598 " stroke="#181821" stroke-width="28" stroke-opacity="1" stroke-miterlimit="10"/><path stroke-linecap="round" transform="matrix(0.0624174, 0, 0, -0.0624174, 57.103086, 279.677149)" fill="none" stroke-linejoin="round" d="M 1477.866888 2726.751678 L 1272.658099 2931.960466 L 1089.353268 2931.960466 " stroke="#181821" stroke-width="28" stroke-opacity="1" stroke-miterlimit="10"/><path stroke-linecap="round" transform="matrix(0.0624174, 0, 0, -0.0624174, 57.103086, 279.677149)" fill="none" stroke-linejoin="round" d="M 1881.212615 3005.995841 C 1881.212615 2981.776323 1900.863594 2962.125344 1925.145695 2962.125344 C 1949.365214 2962.125344 1968.95361 2981.776323 1968.95361 3005.995841 C 1968.95361 3030.21536 1949.365214 3049.866339 1925.145695 3049.866339 C 1900.863594 3049.866339 1881.212615 3030.21536 1881.212615 3005.995841 Z M 1881.212615 3005.995841 " stroke="#181821" stroke-width="28" stroke-opacity="1" stroke-miterlimit="10"/><g clip-path="url(#09f89fafe4)"><path stroke-linecap="round" transform="matrix(0.0624174, 0, 0, -0.0624174, 57.103086, 279.677149)" fill="none" stroke-linejoin="round" d="M 1385.93285 3344.568438 C 1385.93285 3320.286337 1405.583829 3300.697941 1429.86593 3300.697941 C 1454.085448 3300.697941 1473.736427 3320.286337 1473.736427 3344.568438 C 1473.736427 3368.787957 1454.085448 3388.376353 1429.86593 3388.376353 C 1405.583829 3388.376353 1385.93285 3368.787957 1385.93285 3344.568438 Z M 1385.93285 3344.568438 " stroke="#181821" stroke-width="28" stroke-opacity="1" stroke-miterlimit="10"/></g><g clip-path="url(#ffbf3dab1e)"><path stroke-linecap="round" transform="matrix(0.0624174, 0, 0, -0.0624174, 57.103086, 279.677149)" fill="none" stroke-linejoin="round" d="M 971.948057 2931.8353 C 971.948057 2907.615782 991.599036 2887.964803 1015.755972 2887.964803 C 1040.038073 2887.964803 1059.689052 2907.615782 1059.689052 2931.8353 C 1059.689052 2955.992236 1040.038073 2975.643215 1015.755972 2975.643215 C 991.599036 2975.643215 971.948057 2955.992236 971.948057 2931.8353 Z M 971.948057 2931.8353 " stroke="#181821" stroke-width="28" stroke-opacity="1" stroke-miterlimit="10"/></g><g clip-path="url(#2306d2e441)"><path stroke-linecap="round" transform="matrix(0.0624174, 0, 0, -0.0624174, 57.103086, 279.677149)" fill="none" stroke-linejoin="round" d="M 971.948057 2726.751678 C 971.948057 2702.532159 991.599036 2682.88118 1015.755972 2682.88118 C 1040.038073 2682.88118 1059.689052 2702.532159 1059.689052 2726.751678 C 1059.689052 2750.971196 1040.038073 2770.622175 1015.755972 2770.622175 C 991.599036 2770.622175 971.948057 2750.971196 971.948057 2726.751678 Z M 971.948057 2726.751678 " stroke="#181821" stroke-width="28" stroke-opacity="1" stroke-miterlimit="10"/></g><path stroke-linecap="round" transform="matrix(0.0624174, 0, 0, -0.0624174, 57.103086, 279.677149)" fill="none" stroke-linejoin="round" d="M 1103.496967 2482.929342 C 1103.496967 2458.709823 1123.147945 2439.121427 1147.367464 2439.121427 C 1171.586982 2439.121427 1191.237961 2458.709823 1191.237961 2482.929342 C 1191.237961 2507.211443 1171.586982 2526.862422 1147.367464 2526.862422 C 1123.147945 2526.862422 1103.496967 2507.211443 1103.496967 2482.929342 Z M 1103.496967 2482.929342 " stroke="#181821" stroke-width="28" stroke-opacity="1" stroke-miterlimit="10"/><path stroke-linecap="round" transform="matrix(0.0624174, 0, 0, -0.0624174, 57.103086, 279.677149)" fill="none" stroke-linejoin="round" d="M 1208.1353 1345.425549 C 1208.1353 1321.143448 1227.786278 1301.555052 1252.005797 1301.555052 C 1276.225315 1301.555052 1295.876294 1321.143448 1295.876294 1345.425549 C 1295.876294 1369.645067 1276.225315 1389.296046 1252.005797 1389.296046 C 1227.786278 1389.296046 1208.1353 1369.645067 1208.1353 1345.425549 Z M 1208.1353 1345.425549 " stroke="#181821" stroke-width="28" stroke-opacity="1" stroke-miterlimit="10"/><path stroke-linecap="round" transform="matrix(0.0624174, 0, 0, -0.0624174, 57.103086, 279.677149)" fill="none" stroke-linejoin="round" d="M 1187.295249 1656.837239 C 1187.295249 1632.61772 1206.946228 1612.966741 1231.165746 1612.966741 C 1255.447847 1612.966741 1275.036243 1632.61772 1275.036243 1656.837239 C 1275.036243 1681.11934 1255.447847 1700.770319 1231.165746 1700.770319 C 1206.946228 1700.770319 1187.295249 1681.11934 1187.295249 1656.837239 Z M 1187.295249 1656.837239 " stroke="#181821" stroke-width="28" stroke-opacity="1" stroke-miterlimit="10"/><g clip-path="url(#cd3adcb75c)"><path stroke-linecap="round" transform="matrix(0.0624174, 0, 0, -0.0624174, 57.103086, 279.677149)" fill="none" stroke-linejoin="round" d="M 1263.395855 907.471569 C 1263.395855 883.189468 1283.109416 863.601072 1307.328935 863.601072 C 1331.548453 863.601072 1351.199432 883.189468 1351.199432 907.471569 C 1351.199432 931.691087 1331.548453 951.342066 1307.328935 951.342066 C 1283.109416 951.342066 1263.395855 931.691087 1263.395855 907.471569 Z M 1263.395855 907.471569 " stroke="#181821" stroke-width="28" stroke-opacity="1" stroke-miterlimit="10"/></g><path stroke-linecap="round" transform="matrix(0.0624174, 0, 0, -0.0624174, 57.103086, 279.677149)" fill="none" stroke-linejoin="round" d="M 1608.414473 1018.618506 C 1608.414473 994.398988 1628.065452 974.748009 1652.28497 974.748009 C 1676.567072 974.748009 1696.155468 994.398988 1696.155468 1018.618506 C 1696.155468 1042.900608 1676.567072 1062.551586 1652.28497 1062.551586 C 1628.065452 1062.551586 1608.414473 1042.900608 1608.414473 1018.618506 Z M 1608.414473 1018.618506 " stroke="#181821" stroke-width="28" stroke-opacity="1" stroke-miterlimit="10"/><path stroke-linecap="round" transform="matrix(0.0624174, 0, 0, -0.0624174, 57.103086, 279.677149)" fill="none" stroke-linejoin="round" d="M 1925.145695 2642.890813 L 1619.741948 2948.231977 L 1619.741948 3153.628514 L 1462.909614 3310.52343 " stroke="#181821" stroke-width="28" stroke-opacity="1" stroke-miterlimit="10"/><path fill="#000000" d="M 223.957031 119.453125 C 223.957031 118.730469 224.523438 118.070312 225.441406 117.578125 L 225.441406 111.335938 L 154.160156 111.335938 L 154.160156 117.554688 C 155.105469 118.050781 155.6875 118.71875 155.6875 119.453125 C 155.6875 120.191406 155.105469 120.855469 154.160156 121.351562 L 154.160156 182.617188 L 225.441406 182.617188 L 225.441406 121.328125 C 224.523438 120.835938 223.957031 120.179688 223.957031 119.453125 " fill-opacity="1" fill-rule="nonzero"/><path stroke-linecap="round" transform="matrix(0.0624174, 0, 0, -0.0624174, 57.103086, 279.677149)" fill="none" stroke-linejoin="round" d="M 2673.197128 2566.977955 C 2673.197128 2578.555761 2682.271624 2589.132243 2696.978567 2597.017668 L 2696.978567 2697.024878 L 1554.968817 2697.024878 L 1554.968817 2597.393164 C 1570.113839 2589.445157 1579.438667 2578.743509 1579.438667 2566.977955 C 1579.438667 2555.149818 1570.113839 2544.510753 1554.968817 2536.562746 L 1554.968817 1555.015129 L 2696.978567 1555.015129 L 2696.978567 2536.938242 C 2682.271624 2544.823667 2673.197128 2555.337566 2673.197128 2566.977955 Z M 2673.197128 2566.977955 " stroke="#181821" stroke-width="28" stroke-opacity="1" stroke-miterlimit="10"/><path fill="#000000" d="M 165.429688 115.996094 L 158.675781 115.996094 L 158.675781 119.9375 L 165.429688 119.9375 L 165.429688 115.996094 " fill-opacity="1" fill-rule="nonzero"/><path stroke-linecap="round" transform="matrix(0.0624174, 0, 0, -0.0624174, 57.103086, 279.677149)" fill="none" stroke-linejoin="round" d="M 1627.314459 2559.217696 L 1735.520008 2559.217696 L 1735.520008 2622.363675 L 1627.314459 2622.363675 Z M 1627.314459 2559.217696 " stroke="#181821" stroke-width="28" stroke-opacity="1" stroke-miterlimit="10"/><path fill="#000000" d="M 174.683594 115.996094 L 167.929688 115.996094 L 167.929688 119.9375 L 174.683594 119.9375 L 174.683594 115.996094 " fill-opacity="1" fill-rule="nonzero"/><path stroke-linecap="round" transform="matrix(0.0624174, 0, 0, -0.0624174, 57.103086, 279.677149)" fill="none" stroke-linejoin="round" d="M 1775.572958 2559.217696 L 1883.778507 2559.217696 L 1883.778507 2622.363675 L 1775.572958 2622.363675 Z M 1775.572958 2559.217696 " stroke="#181821" stroke-width="28" stroke-opacity="1" stroke-miterlimit="10"/><path fill="#000000" d="M 183.925781 115.996094 L 177.175781 115.996094 L 177.175781 119.9375 L 183.925781 119.9375 L 183.925781 115.996094 " fill-opacity="1" fill-rule="nonzero"/><path stroke-linecap="round" transform="matrix(0.0624174, 0, 0, -0.0624174, 57.103086, 279.677149)" fill="none" stroke-linejoin="round" d="M 1923.706292 2559.217696 L 2031.849259 2559.217696 L 2031.849259 2622.363675 L 1923.706292 2622.363675 Z M 1923.706292 2559.217696 " stroke="#181821" stroke-width="28" stroke-opacity="1" stroke-miterlimit="10"/><path fill="#000000" d="M 193.179688 115.996094 L 186.425781 115.996094 L 186.425781 119.9375 L 193.179688 119.9375 L 193.179688 115.996094 " fill-opacity="1" fill-rule="nonzero"/><path stroke-linecap="round" transform="matrix(0.0624174, 0, 0, -0.0624174, 57.103086, 279.677149)" fill="none" stroke-linejoin="round" d="M 2071.902209 2559.217696 L 2180.107758 2559.217696 L 2180.107758 2622.363675 L 2071.902209 2622.363675 Z M 2071.902209 2559.217696 " stroke="#181821" stroke-width="28" stroke-opacity="1" stroke-miterlimit="10"/><path fill="#000000" d="M 202.429688 115.996094 L 195.675781 115.996094 L 195.675781 119.9375 L 202.429688 119.9375 L 202.429688 115.996094 " fill-opacity="1" fill-rule="nonzero"/><path stroke-linecap="round" transform="matrix(0.0624174, 0, 0, -0.0624174, 57.103086, 279.677149)" fill="none" stroke-linejoin="round" d="M 2220.098126 2559.217696 L 2328.303675 2559.217696 L 2328.303675 2622.363675 L 2220.098126 2622.363675 Z M 2220.098126 2559.217696 " stroke="#181821" stroke-width="28" stroke-opacity="1" stroke-miterlimit="10"/><path fill="#000000" d="M 211.675781 115.996094 L 204.921875 115.996094 L 204.921875 119.9375 L 211.675781 119.9375 L 211.675781 115.996094 " fill-opacity="1" fill-rule="nonzero"/><path stroke-linecap="round" transform="matrix(0.0624174, 0, 0, -0.0624174, 57.103086, 279.677149)" fill="none" stroke-linejoin="round" d="M 2368.23146 2559.217696 L 2476.437009 2559.217696 L 2476.437009 2622.363675 L 2368.23146 2622.363675 Z M 2368.23146 2559.217696 " stroke="#181821" stroke-width="28" stroke-opacity="1" stroke-miterlimit="10"/><path fill="#000000" d="M 214.171875 119.9375 L 220.925781 119.9375 L 220.925781 115.996094 L 214.171875 115.996094 L 214.171875 119.9375 " fill-opacity="1" fill-rule="nonzero"/><path stroke-linecap="round" transform="matrix(0.0624174, 0, 0, -0.0624174, 57.103086, 279.677149)" fill="none" stroke-linejoin="round" d="M 2516.427376 2559.217696 L 2624.632925 2559.217696 L 2624.632925 2622.363675 L 2516.427376 2622.363675 Z M 2516.427376 2559.217696 " stroke="#181821" stroke-width="28" stroke-opacity="1" stroke-miterlimit="10"/><path fill="#000000" d="M 165.429688 123.027344 L 159.019531 123.027344 C 159.042969 123.117188 159.058594 123.214844 159.058594 123.3125 C 159.058594 123.648438 158.921875 123.96875 158.675781 124.261719 L 158.675781 129.609375 L 165.429688 129.609375 L 165.429688 123.027344 " fill-opacity="1" fill-rule="nonzero"/><path stroke-linecap="round" transform="matrix(0.0624174, 0, 0, -0.0624174, 57.103086, 279.677149)" fill="none" stroke-linejoin="round" d="M 1735.520008 2509.714752 L 1632.82174 2509.714752 C 1633.197236 2508.275349 1633.447567 2506.710781 1633.447567 2505.146213 C 1633.447567 2499.764097 1631.257171 2494.632313 1627.314459 2489.938608 L 1627.314459 2404.262844 L 1735.520008 2404.262844 Z M 1735.520008 2509.714752 " stroke="#181821" stroke-width="28" stroke-opacity="1" stroke-miterlimit="10"/><path fill="#000000" d="M 174.683594 123.027344 L 167.929688 123.027344 L 167.929688 129.609375 L 174.683594 129.609375 L 174.683594 123.027344 " fill-opacity="1" fill-rule="nonzero"/><path stroke-linecap="round" transform="matrix(0.0624174, 0, 0, -0.0624174, 57.103086, 279.677149)" fill="none" stroke-linejoin="round" d="M 1775.572958 2404.262844 L 1883.778507 2404.262844 L 1883.778507 2509.714752 L 1775.572958 2509.714752 Z M 1775.572958 2404.262844 " stroke="#181821" stroke-width="28" stroke-opacity="1" stroke-miterlimit="10"/><path fill="#000000" d="M 183.925781 123.027344 L 177.175781 123.027344 L 177.175781 129.609375 L 183.925781 129.609375 L 183.925781 123.027344 " fill-opacity="1" fill-rule="nonzero"/><path stroke-linecap="round" transform="matrix(0.0624174, 0, 0, -0.0624174, 57.103086, 279.677149)" fill="none" stroke-linejoin="round" d="M 1923.706292 2404.262844 L 2031.849259 2404.262844 L 2031.849259 2509.714752 L 1923.706292 2509.714752 Z M 1923.706292 2404.262844 " stroke="#181821" stroke-width="28" stroke-opacity="1" stroke-miterlimit="10"/><path fill="#000000" d="M 193.179688 123.027344 L 186.425781 123.027344 L 186.425781 129.609375 L 193.179688 129.609375 L 193.179688 123.027344 " fill-opacity="1" fill-rule="nonzero"/><path stroke-linecap="round" transform="matrix(0.0624174, 0, 0, -0.0624174, 57.103086, 279.677149)" fill="none" stroke-linejoin="round" d="M 2071.902209 2404.262844 L 2180.107758 2404.262844 L 2180.107758 2509.714752 L 2071.902209 2509.714752 Z M 2071.902209 2404.262844 " stroke="#181821" stroke-width="28" stroke-opacity="1" stroke-miterlimit="10"/><path fill="#000000" d="M 202.429688 123.027344 L 195.675781 123.027344 L 195.675781 129.609375 L 202.429688 129.609375 L 202.429688 123.027344 " fill-opacity="1" fill-rule="nonzero"/><path stroke-linecap="round" transform="matrix(0.0624174, 0, 0, -0.0624174, 57.103086, 279.677149)" fill="none" stroke-linejoin="round" d="M 2220.098126 2404.262844 L 2328.303675 2404.262844 L 2328.303675 2509.714752 L 2220.098126 2509.714752 Z M 2220.098126 2404.262844 " stroke="#181821" stroke-width="28" stroke-opacity="1" stroke-miterlimit="10"/><path fill="#000000" d="M 211.675781 123.027344 L 204.921875 123.027344 L 204.921875 129.609375 L 211.675781 129.609375 L 211.675781 123.027344 " fill-opacity="1" fill-rule="nonzero"/><path stroke-linecap="round" transform="matrix(0.0624174, 0, 0, -0.0624174, 57.103086, 279.677149)" fill="none" stroke-linejoin="round" d="M 2368.23146 2404.262844 L 2476.437009 2404.262844 L 2476.437009 2509.714752 L 2368.23146 2509.714752 Z M 2368.23146 2404.262844 " stroke="#181821" stroke-width="28" stroke-opacity="1" stroke-miterlimit="10"/><path fill="#000000" d="M 214.171875 123.027344 L 214.171875 129.609375 L 220.925781 129.609375 L 220.925781 124.207031 C 220.707031 123.929688 220.585938 123.628906 220.585938 123.3125 C 220.585938 123.214844 220.601562 123.117188 220.621094 123.027344 L 214.171875 123.027344 " fill-opacity="1" fill-rule="nonzero"/><path stroke-linecap="round" transform="matrix(0.0624174, 0, 0, -0.0624174, 57.103086, 279.677149)" fill="none" stroke-linejoin="round" d="M 2516.427376 2509.714752 L 2516.427376 2404.262844 L 2624.632925 2404.262844 L 2624.632925 2490.814766 C 2621.128292 2495.258141 2619.188227 2500.077011 2619.188227 2505.146213 C 2619.188227 2506.710781 2619.438558 2508.275349 2619.751472 2509.714752 Z M 2516.427376 2509.714752 " stroke="#181821" stroke-width="28" stroke-opacity="1" stroke-miterlimit="10"/><path fill="#000000" d="M 165.429688 132.695312 L 158.675781 132.695312 L 158.675781 139.277344 L 165.429688 139.277344 L 165.429688 132.695312 " fill-opacity="1" fill-rule="nonzero"/><path stroke-linecap="round" transform="matrix(0.0624174, 0, 0, -0.0624174, 57.103086, 279.677149)" fill="none" stroke-linejoin="round" d="M 1627.314459 2249.370574 L 1735.520008 2249.370574 L 1735.520008 2354.822483 L 1627.314459 2354.822483 Z M 1627.314459 2249.370574 " stroke="#181821" stroke-width="28" stroke-opacity="1" stroke-miterlimit="10"/><path fill="#000000" d="M 174.683594 132.695312 L 167.929688 132.695312 L 167.929688 139.277344 L 174.683594 139.277344 L 174.683594 132.695312 " fill-opacity="1" fill-rule="nonzero"/><path stroke-linecap="round" transform="matrix(0.0624174, 0, 0, -0.0624174, 57.103086, 279.677149)" fill="none" stroke-linejoin="round" d="M 1775.572958 2249.370574 L 1883.778507 2249.370574 L 1883.778507 2354.822483 L 1775.572958 2354.822483 Z M 1775.572958 2249.370574 " stroke="#181821" stroke-width="28" stroke-opacity="1" stroke-miterlimit="10"/><path fill="#000000" d="M 183.925781 132.695312 L 177.175781 132.695312 L 177.175781 139.277344 L 183.925781 139.277344 L 183.925781 132.695312 " fill-opacity="1" fill-rule="nonzero"/><path stroke-linecap="round" transform="matrix(0.0624174, 0, 0, -0.0624174, 57.103086, 279.677149)" fill="none" stroke-linejoin="round" d="M 1923.706292 2249.370574 L 2031.849259 2249.370574 L 2031.849259 2354.822483 L 1923.706292 2354.822483 Z M 1923.706292 2249.370574 " stroke="#181821" stroke-width="28" stroke-opacity="1" stroke-miterlimit="10"/><path fill="#000000" d="M 193.179688 132.695312 L 186.425781 132.695312 L 186.425781 139.277344 L 193.179688 139.277344 L 193.179688 132.695312 " fill-opacity="1" fill-rule="nonzero"/><path stroke-linecap="round" transform="matrix(0.0624174, 0, 0, -0.0624174, 57.103086, 279.677149)" fill="none" stroke-linejoin="round" d="M 2071.902209 2249.370574 L 2180.107758 2249.370574 L 2180.107758 2354.822483 L 2071.902209 2354.822483 Z M 2071.902209 2249.370574 " stroke="#181821" stroke-width="28" stroke-opacity="1" stroke-miterlimit="10"/><path fill="#000000" d="M 202.429688 132.695312 L 195.675781 132.695312 L 195.675781 139.277344 L 202.429688 139.277344 L 202.429688 132.695312 " fill-opacity="1" fill-rule="nonzero"/><path stroke-linecap="round" transform="matrix(0.0624174, 0, 0, -0.0624174, 57.103086, 279.677149)" fill="none" stroke-linejoin="round" d="M 2220.098126 2249.370574 L 2328.303675 2249.370574 L 2328.303675 2354.822483 L 2220.098126 2354.822483 Z M 2220.098126 2249.370574 " stroke="#181821" stroke-width="28" stroke-opacity="1" stroke-miterlimit="10"/><path fill="#000000" d="M 211.675781 132.695312 L 204.921875 132.695312 L 204.921875 139.277344 L 211.675781 139.277344 L 211.675781 132.695312 " fill-opacity="1" fill-rule="nonzero"/><path stroke-linecap="round" transform="matrix(0.0624174, 0, 0, -0.0624174, 57.103086, 279.677149)" fill="none" stroke-linejoin="round" d="M 2368.23146 2249.370574 L 2476.437009 2249.370574 L 2476.437009 2354.822483 L 2368.23146 2354.822483 Z M 2368.23146 2249.370574 " stroke="#181821" stroke-width="28" stroke-opacity="1" stroke-miterlimit="10"/><path fill="#000000" d="M 220.925781 132.695312 L 214.171875 132.695312 L 214.171875 139.277344 L 220.925781 139.277344 L 220.925781 132.695312 " fill-opacity="1" fill-rule="nonzero"/><path stroke-linecap="round" transform="matrix(0.0624174, 0, 0, -0.0624174, 57.103086, 279.677149)" fill="none" stroke-linejoin="round" d="M 2516.427376 2249.370574 L 2624.632925 2249.370574 L 2624.632925 2354.822483 L 2516.427376 2354.822483 Z M 2516.427376 2249.370574 " stroke="#181821" stroke-width="28" stroke-opacity="1" stroke-miterlimit="10"/><path fill="#000000" d="M 165.429688 142.363281 L 158.675781 142.363281 L 158.675781 148.949219 L 165.429688 148.949219 L 165.429688 142.363281 " fill-opacity="1" fill-rule="nonzero"/><path stroke-linecap="round" transform="matrix(0.0624174, 0, 0, -0.0624174, 57.103086, 279.677149)" fill="none" stroke-linejoin="round" d="M 1627.314459 2094.415722 L 1735.520008 2094.415722 L 1735.520008 2199.930214 L 1627.314459 2199.930214 Z M 1627.314459 2094.415722 " stroke="#181821" stroke-width="28" stroke-opacity="1" stroke-miterlimit="10"/><path fill="#000000" d="M 174.683594 142.363281 L 167.929688 142.363281 L 167.929688 148.949219 L 174.683594 148.949219 L 174.683594 142.363281 " fill-opacity="1" fill-rule="nonzero"/><path stroke-linecap="round" transform="matrix(0.0624174, 0, 0, -0.0624174, 57.103086, 279.677149)" fill="none" stroke-linejoin="round" d="M 1775.572958 2094.415722 L 1883.778507 2094.415722 L 1883.778507 2199.930214 L 1775.572958 2199.930214 Z M 1775.572958 2094.415722 " stroke="#181821" stroke-width="28" stroke-opacity="1" stroke-miterlimit="10"/><path fill="#000000" d="M 183.925781 142.363281 L 177.175781 142.363281 L 177.175781 148.949219 L 183.925781 148.949219 L 183.925781 142.363281 " fill-opacity="1" fill-rule="nonzero"/><path stroke-linecap="round" transform="matrix(0.0624174, 0, 0, -0.0624174, 57.103086, 279.677149)" fill="none" stroke-linejoin="round" d="M 1923.706292 2094.415722 L 2031.849259 2094.415722 L 2031.849259 2199.930214 L 1923.706292 2199.930214 Z M 1923.706292 2094.415722 " stroke="#181821" stroke-width="28" stroke-opacity="1" stroke-miterlimit="10"/><path fill="#000000" d="M 193.179688 142.363281 L 186.425781 142.363281 L 186.425781 148.949219 L 193.179688 148.949219 L 193.179688 142.363281 " fill-opacity="1" fill-rule="nonzero"/><path stroke-linecap="round" transform="matrix(0.0624174, 0, 0, -0.0624174, 57.103086, 279.677149)" fill="none" stroke-linejoin="round" d="M 2071.902209 2094.415722 L 2180.107758 2094.415722 L 2180.107758 2199.930214 L 2071.902209 2199.930214 Z M 2071.902209 2094.415722 " stroke="#181821" stroke-width="28" stroke-opacity="1" stroke-miterlimit="10"/><path fill="#000000" d="M 202.429688 142.363281 L 195.675781 142.363281 L 195.675781 148.949219 L 202.429688 148.949219 L 202.429688 142.363281 " fill-opacity="1" fill-rule="nonzero"/><path stroke-linecap="round" transform="matrix(0.0624174, 0, 0, -0.0624174, 57.103086, 279.677149)" fill="none" stroke-linejoin="round" d="M 2220.098126 2094.415722 L 2328.303675 2094.415722 L 2328.303675 2199.930214 L 2220.098126 2199.930214 Z M 2220.098126 2094.415722 " stroke="#181821" stroke-width="28" stroke-opacity="1" stroke-miterlimit="10"/><path fill="#000000" d="M 211.675781 142.363281 L 204.921875 142.363281 L 204.921875 148.949219 L 211.675781 148.949219 L 211.675781 142.363281 " fill-opacity="1" fill-rule="nonzero"/><path stroke-linecap="round" transform="matrix(0.0624174, 0, 0, -0.0624174, 57.103086, 279.677149)" fill="none" stroke-linejoin="round" d="M 2368.23146 2094.415722 L 2476.437009 2094.415722 L 2476.437009 2199.930214 L 2368.23146 2199.930214 Z M 2368.23146 2094.415722 " stroke="#181821" stroke-width="28" stroke-opacity="1" stroke-miterlimit="10"/><path fill="#000000" d="M 220.925781 142.363281 L 214.171875 142.363281 L 214.171875 148.949219 L 220.925781 148.949219 L 220.925781 142.363281 " fill-opacity="1" fill-rule="nonzero"/><path stroke-linecap="round" transform="matrix(0.0624174, 0, 0, -0.0624174, 57.103086, 279.677149)" fill="none" stroke-linejoin="round" d="M 2516.427376 2094.415722 L 2624.632925 2094.415722 L 2624.632925 2199.930214 L 2516.427376 2199.930214 Z M 2516.427376 2094.415722 " stroke="#181821" stroke-width="28" stroke-opacity="1" stroke-miterlimit="10"/><path fill="#000000" d="M 165.429688 152.03125 L 158.675781 152.03125 L 158.675781 158.621094 L 165.429688 158.621094 L 165.429688 152.03125 " fill-opacity="1" fill-rule="nonzero"/><path stroke-linecap="round" transform="matrix(0.0624174, 0, 0, -0.0624174, 57.103086, 279.677149)" fill="none" stroke-linejoin="round" d="M 1627.314459 1939.46087 L 1735.520008 1939.46087 L 1735.520008 2045.037944 L 1627.314459 2045.037944 Z M 1627.314459 1939.46087 " stroke="#181821" stroke-width="28" stroke-opacity="1" stroke-miterlimit="10"/><path fill="#000000" d="M 174.683594 152.03125 L 167.929688 152.03125 L 167.929688 158.621094 L 174.683594 158.621094 L 174.683594 152.03125 " fill-opacity="1" fill-rule="nonzero"/><path stroke-linecap="round" transform="matrix(0.0624174, 0, 0, -0.0624174, 57.103086, 279.677149)" fill="none" stroke-linejoin="round" d="M 1775.572958 1939.46087 L 1883.778507 1939.46087 L 1883.778507 2045.037944 L 1775.572958 2045.037944 Z M 1775.572958 1939.46087 " stroke="#181821" stroke-width="28" stroke-opacity="1" stroke-miterlimit="10"/><path fill="#000000" d="M 183.925781 152.03125 L 177.175781 152.03125 L 177.175781 158.621094 L 183.925781 158.621094 L 183.925781 152.03125 " fill-opacity="1" fill-rule="nonzero"/><path stroke-linecap="round" transform="matrix(0.0624174, 0, 0, -0.0624174, 57.103086, 279.677149)" fill="none" stroke-linejoin="round" d="M 1923.706292 1939.46087 L 2031.849259 1939.46087 L 2031.849259 2045.037944 L 1923.706292 2045.037944 Z M 1923.706292 1939.46087 " stroke="#181821" stroke-width="28" stroke-opacity="1" stroke-miterlimit="10"/><path fill="#000000" d="M 193.179688 152.03125 L 186.425781 152.03125 L 186.425781 158.621094 L 193.179688 158.621094 L 193.179688 152.03125 " fill-opacity="1" fill-rule="nonzero"/><path stroke-linecap="round" transform="matrix(0.0624174, 0, 0, -0.0624174, 57.103086, 279.677149)" fill="none" stroke-linejoin="round" d="M 2071.902209 1939.46087 L 2180.107758 1939.46087 L 2180.107758 2045.037944 L 2071.902209 2045.037944 Z M 2071.902209 1939.46087 " stroke="#181821" stroke-width="28" stroke-opacity="1" stroke-miterlimit="10"/><path fill="#000000" d="M 202.429688 152.03125 L 195.675781 152.03125 L 195.675781 158.621094 L 202.429688 158.621094 L 202.429688 152.03125 " fill-opacity="1" fill-rule="nonzero"/><path stroke-linecap="round" transform="matrix(0.0624174, 0, 0, -0.0624174, 57.103086, 279.677149)" fill="none" stroke-linejoin="round" d="M 2220.098126 1939.46087 L 2328.303675 1939.46087 L 2328.303675 2045.037944 L 2220.098126 2045.037944 Z M 2220.098126 1939.46087 " stroke="#181821" stroke-width="28" stroke-opacity="1" stroke-miterlimit="10"/><path fill="#000000" d="M 211.675781 152.03125 L 204.921875 152.03125 L 204.921875 158.621094 L 211.675781 158.621094 L 211.675781 152.03125 " fill-opacity="1" fill-rule="nonzero"/><path stroke-linecap="round" transform="matrix(0.0624174, 0, 0, -0.0624174, 57.103086, 279.677149)" fill="none" stroke-linejoin="round" d="M 2368.23146 1939.46087 L 2476.437009 1939.46087 L 2476.437009 2045.037944 L 2368.23146 2045.037944 Z M 2368.23146 1939.46087 " stroke="#181821" stroke-width="28" stroke-opacity="1" stroke-miterlimit="10"/><path fill="#000000" d="M 220.925781 152.03125 L 214.171875 152.03125 L 214.171875 158.621094 L 220.925781 158.621094 L 220.925781 152.03125 " fill-opacity="1" fill-rule="nonzero"/><path stroke-linecap="round" transform="matrix(0.0624174, 0, 0, -0.0624174, 57.103086, 279.677149)" fill="none" stroke-linejoin="round" d="M 2516.427376 1939.46087 L 2624.632925 1939.46087 L 2624.632925 2045.037944 L 2516.427376 2045.037944 Z M 2516.427376 1939.46087 " stroke="#181821" stroke-width="28" stroke-opacity="1" stroke-miterlimit="10"/><path fill="#000000" d="M 165.429688 161.703125 L 158.675781 161.703125 L 158.675781 168.289062 L 165.429688 168.289062 L 165.429688 161.703125 " fill-opacity="1" fill-rule="nonzero"/><path stroke-linecap="round" transform="matrix(0.0624174, 0, 0, -0.0624174, 57.103086, 279.677149)" fill="none" stroke-linejoin="round" d="M 1627.314459 1784.568601 L 1735.520008 1784.568601 L 1735.520008 1890.083092 L 1627.314459 1890.083092 Z M 1627.314459 1784.568601 " stroke="#181821" stroke-width="28" stroke-opacity="1" stroke-miterlimit="10"/><path fill="#000000" d="M 174.683594 161.703125 L 167.929688 161.703125 L 167.929688 168.289062 L 174.683594 168.289062 L 174.683594 161.703125 " fill-opacity="1" fill-rule="nonzero"/><path stroke-linecap="round" transform="matrix(0.0624174, 0, 0, -0.0624174, 57.103086, 279.677149)" fill="none" stroke-linejoin="round" d="M 1775.572958 1784.568601 L 1883.778507 1784.568601 L 1883.778507 1890.083092 L 1775.572958 1890.083092 Z M 1775.572958 1784.568601 " stroke="#181821" stroke-width="28" stroke-opacity="1" stroke-miterlimit="10"/><path fill="#000000" d="M 183.925781 161.703125 L 177.175781 161.703125 L 177.175781 168.289062 L 183.925781 168.289062 L 183.925781 161.703125 " fill-opacity="1" fill-rule="nonzero"/><path stroke-linecap="round" transform="matrix(0.0624174, 0, 0, -0.0624174, 57.103086, 279.677149)" fill="none" stroke-linejoin="round" d="M 1923.706292 1784.568601 L 2031.849259 1784.568601 L 2031.849259 1890.083092 L 1923.706292 1890.083092 Z M 1923.706292 1784.568601 " stroke="#181821" stroke-width="28" stroke-opacity="1" stroke-miterlimit="10"/><path fill="#000000" d="M 193.179688 161.703125 L 186.425781 161.703125 L 186.425781 168.289062 L 193.179688 168.289062 L 193.179688 161.703125 " fill-opacity="1" fill-rule="nonzero"/><path stroke-linecap="round" transform="matrix(0.0624174, 0, 0, -0.0624174, 57.103086, 279.677149)" fill="none" stroke-linejoin="round" d="M 2071.902209 1784.568601 L 2180.107758 1784.568601 L 2180.107758 1890.083092 L 2071.902209 1890.083092 Z M 2071.902209 1784.568601 " stroke="#181821" stroke-width="28" stroke-opacity="1" stroke-miterlimit="10"/><path fill="#000000" d="M 202.429688 161.703125 L 195.675781 161.703125 L 195.675781 168.289062 L 202.429688 168.289062 L 202.429688 161.703125 " fill-opacity="1" fill-rule="nonzero"/><path stroke-linecap="round" transform="matrix(0.0624174, 0, 0, -0.0624174, 57.103086, 279.677149)" fill="none" stroke-linejoin="round" d="M 2220.098126 1784.568601 L 2328.303675 1784.568601 L 2328.303675 1890.083092 L 2220.098126 1890.083092 Z M 2220.098126 1784.568601 " stroke="#181821" stroke-width="28" stroke-opacity="1" stroke-miterlimit="10"/><path fill="#000000" d="M 211.675781 161.703125 L 204.921875 161.703125 L 204.921875 168.289062 L 211.675781 168.289062 L 211.675781 161.703125 " fill-opacity="1" fill-rule="nonzero"/><path stroke-linecap="round" transform="matrix(0.0624174, 0, 0, -0.0624174, 57.103086, 279.677149)" fill="none" stroke-linejoin="round" d="M 2368.23146 1784.568601 L 2476.437009 1784.568601 L 2476.437009 1890.083092 L 2368.23146 1890.083092 Z M 2368.23146 1784.568601 " stroke="#181821" stroke-width="28" stroke-opacity="1" stroke-miterlimit="10"/><path fill="#000000" d="M 220.925781 161.703125 L 214.171875 161.703125 L 214.171875 168.289062 L 220.925781 168.289062 L 220.925781 161.703125 " fill-opacity="1" fill-rule="nonzero"/><path stroke-linecap="round" transform="matrix(0.0624174, 0, 0, -0.0624174, 57.103086, 279.677149)" fill="none" stroke-linejoin="round" d="M 2516.427376 1784.568601 L 2624.632925 1784.568601 L 2624.632925 1890.083092 L 2516.427376 1890.083092 Z M 2516.427376 1784.568601 " stroke="#181821" stroke-width="28" stroke-opacity="1" stroke-miterlimit="10"/><path fill="#000000" d="M 165.429688 171.371094 L 158.675781 171.371094 L 158.675781 177.957031 L 165.429688 177.957031 L 165.429688 171.371094 " fill-opacity="1" fill-rule="nonzero"/><path stroke-linecap="round" transform="matrix(0.0624174, 0, 0, -0.0624174, 57.103086, 279.677149)" fill="none" stroke-linejoin="round" d="M 1627.314459 1629.676332 L 1735.520008 1629.676332 L 1735.520008 1735.190823 L 1627.314459 1735.190823 Z M 1627.314459 1629.676332 " stroke="#181821" stroke-width="28" stroke-opacity="1" stroke-miterlimit="10"/><path fill="#000000" d="M 167.929688 177.957031 L 174.683594 177.957031 L 174.683594 171.371094 L 167.929688 171.371094 L 167.929688 177.957031 " fill-opacity="1" fill-rule="nonzero"/><path stroke-linecap="round" transform="matrix(0.0624174, 0, 0, -0.0624174, 57.103086, 279.677149)" fill="none" stroke-linejoin="round" d="M 1775.572958 1629.676332 L 1883.778507 1629.676332 L 1883.778507 1735.190823 L 1775.572958 1735.190823 Z M 1775.572958 1629.676332 " stroke="#181821" stroke-width="28" stroke-opacity="1" stroke-miterlimit="10"/><path fill="#000000" d="M 177.175781 177.957031 L 183.925781 177.957031 L 183.925781 171.371094 L 177.175781 171.371094 L 177.175781 177.957031 " fill-opacity="1" fill-rule="nonzero"/><path stroke-linecap="round" transform="matrix(0.0624174, 0, 0, -0.0624174, 57.103086, 279.677149)" fill="none" stroke-linejoin="round" d="M 1923.706292 1629.676332 L 2031.849259 1629.676332 L 2031.849259 1735.190823 L 1923.706292 1735.190823 Z M 1923.706292 1629.676332 " stroke="#181821" stroke-width="28" stroke-opacity="1" stroke-miterlimit="10"/><path fill="#000000" d="M 186.425781 177.957031 L 193.179688 177.957031 L 193.179688 171.371094 L 186.425781 171.371094 L 186.425781 177.957031 " fill-opacity="1" fill-rule="nonzero"/><path stroke-linecap="round" transform="matrix(0.0624174, 0, 0, -0.0624174, 57.103086, 279.677149)" fill="none" stroke-linejoin="round" d="M 2071.902209 1629.676332 L 2180.107758 1629.676332 L 2180.107758 1735.190823 L 2071.902209 1735.190823 Z M 2071.902209 1629.676332 " stroke="#181821" stroke-width="28" stroke-opacity="1" stroke-miterlimit="10"/><path fill="#000000" d="M 195.675781 177.957031 L 202.429688 177.957031 L 202.429688 171.371094 L 195.675781 171.371094 L 195.675781 177.957031 " fill-opacity="1" fill-rule="nonzero"/><path stroke-linecap="round" transform="matrix(0.0624174, 0, 0, -0.0624174, 57.103086, 279.677149)" fill="none" stroke-linejoin="round" d="M 2220.098126 1629.676332 L 2328.303675 1629.676332 L 2328.303675 1735.190823 L 2220.098126 1735.190823 Z M 2220.098126 1629.676332 " stroke="#181821" stroke-width="28" stroke-opacity="1" stroke-miterlimit="10"/><path fill="#000000" d="M 204.921875 177.957031 L 211.675781 177.957031 L 211.675781 171.371094 L 204.921875 171.371094 L 204.921875 177.957031 " fill-opacity="1" fill-rule="nonzero"/><path stroke-linecap="round" transform="matrix(0.0624174, 0, 0, -0.0624174, 57.103086, 279.677149)" fill="none" stroke-linejoin="round" d="M 2368.23146 1629.676332 L 2476.437009 1629.676332 L 2476.437009 1735.190823 L 2368.23146 1735.190823 Z M 2368.23146 1629.676332 " stroke="#181821" stroke-width="28" stroke-opacity="1" stroke-miterlimit="10"/><path fill="#000000" d="M 214.171875 177.957031 L 220.925781 177.957031 L 220.925781 171.371094 L 214.171875 171.371094 L 214.171875 177.957031 " fill-opacity="1" fill-rule="nonzero"/><path stroke-linecap="round" transform="matrix(0.0624174, 0, 0, -0.0624174, 57.103086, 279.677149)" fill="none" stroke-linejoin="round" d="M 2516.427376 1629.676332 L 2624.632925 1629.676332 L 2624.632925 1735.190823 L 2516.427376 1735.190823 Z M 2516.427376 1629.676332 " stroke="#181821" stroke-width="28" stroke-opacity="1" stroke-miterlimit="10"/><path fill="#000000" d="M 207.609375 163.324219 L 171.996094 163.324219 L 171.996094 131.144531 L 207.609375 131.144531 L 207.609375 163.324219 " fill-opacity="1" fill-rule="nonzero"/><path stroke-linecap="round" transform="matrix(0.0624174, 0, 0, -0.0624174, 57.103086, 279.677149)" fill="none" stroke-linejoin="round" d="M 2411.288381 1864.111257 L 1840.721586 1864.111257 L 1840.721586 2379.667829 L 2411.288381 2379.667829 Z M 2411.288381 1864.111257 " stroke="#181821" stroke-width="28" stroke-opacity="1" stroke-miterlimit="10"/><path fill="#000000" d="M 182.394531 139.367188 L 175.15625 139.367188 L 175.15625 135.1875 L 182.394531 135.1875 L 182.394531 139.367188 " fill-opacity="1" fill-rule="nonzero"/><path stroke-linecap="round" transform="matrix(0.0624174, 0, 0, -0.0624174, 57.103086, 279.677149)" fill="none" stroke-linejoin="round" d="M 2007.316826 2247.931171 L 1891.351018 2247.931171 L 1891.351018 2314.894698 L 2007.316826 2314.894698 Z M 2007.316826 2247.931171 " stroke="#181821" stroke-width="28" stroke-opacity="1" stroke-miterlimit="10"/><path fill="#000000" d="M 182.394531 146.007812 L 175.15625 146.007812 L 175.15625 141.828125 L 182.394531 141.828125 L 182.394531 146.007812 " fill-opacity="1" fill-rule="nonzero"/><path stroke-linecap="round" transform="matrix(0.0624174, 0, 0, -0.0624174, 57.103086, 279.677149)" fill="none" stroke-linejoin="round" d="M 2007.316826 2141.540522 L 1891.351018 2141.540522 L 1891.351018 2208.504048 L 2007.316826 2208.504048 Z M 2007.316826 2141.540522 " stroke="#181821" stroke-width="28" stroke-opacity="1" stroke-miterlimit="10"/><path fill="#000000" d="M 182.394531 152.644531 L 175.15625 152.644531 L 175.15625 148.464844 L 182.394531 148.464844 L 182.394531 152.644531 " fill-opacity="1" fill-rule="nonzero"/><path stroke-linecap="round" transform="matrix(0.0624174, 0, 0, -0.0624174, 57.103086, 279.677149)" fill="none" stroke-linejoin="round" d="M 2007.316826 2035.212455 L 1891.351018 2035.212455 L 1891.351018 2102.175982 L 2007.316826 2102.175982 Z M 2007.316826 2035.212455 " stroke="#181821" stroke-width="28" stroke-opacity="1" stroke-miterlimit="10"/><path fill="#000000" d="M 182.394531 159.28125 L 175.15625 159.28125 L 175.15625 155.101562 L 182.394531 155.101562 L 182.394531 159.28125 " fill-opacity="1" fill-rule="nonzero"/><path stroke-linecap="round" transform="matrix(0.0624174, 0, 0, -0.0624174, 57.103086, 279.677149)" fill="none" stroke-linejoin="round" d="M 2007.316826 1928.884388 L 1891.351018 1928.884388 L 1891.351018 1995.847915 L 2007.316826 1995.847915 Z M 2007.316826 1928.884388 " stroke="#181821" stroke-width="28" stroke-opacity="1" stroke-miterlimit="10"/><path fill="#000000" d="M 204.449219 139.367188 L 197.210938 139.367188 L 197.210938 135.1875 L 204.449219 135.1875 L 204.449219 139.367188 " fill-opacity="1" fill-rule="nonzero"/><path stroke-linecap="round" transform="matrix(0.0624174, 0, 0, -0.0624174, 57.103086, 279.677149)" fill="none" stroke-linejoin="round" d="M 2360.658949 2247.931171 L 2244.693141 2247.931171 L 2244.693141 2314.894698 L 2360.658949 2314.894698 Z M 2360.658949 2247.931171 " stroke="#181821" stroke-width="28" stroke-opacity="1" stroke-miterlimit="10"/><path fill="#000000" d="M 204.449219 146.007812 L 197.210938 146.007812 L 197.210938 141.828125 L 204.449219 141.828125 L 204.449219 146.007812 " fill-opacity="1" fill-rule="nonzero"/><path stroke-linecap="round" transform="matrix(0.0624174, 0, 0, -0.0624174, 57.103086, 279.677149)" fill="none" stroke-linejoin="round" d="M 2360.658949 2141.540522 L 2244.693141 2141.540522 L 2244.693141 2208.504048 L 2360.658949 2208.504048 Z M 2360.658949 2141.540522 " stroke="#181821" stroke-width="28" stroke-opacity="1" stroke-miterlimit="10"/><path fill="#000000" d="M 204.449219 152.644531 L 197.210938 152.644531 L 197.210938 148.464844 L 204.449219 148.464844 L 204.449219 152.644531 " fill-opacity="1" fill-rule="nonzero"/><path stroke-linecap="round" transform="matrix(0.0624174, 0, 0, -0.0624174, 57.103086, 279.677149)" fill="none" stroke-linejoin="round" d="M 2360.658949 2035.212455 L 2244.693141 2035.212455 L 2244.693141 2102.175982 L 2360.658949 2102.175982 Z M 2360.658949 2035.212455 " stroke="#181821" stroke-width="28" stroke-opacity="1" stroke-miterlimit="10"/><path fill="#000000" d="M 204.449219 159.28125 L 197.210938 159.28125 L 197.210938 155.101562 L 204.449219 155.101562 L 204.449219 159.28125 " fill-opacity="1" fill-rule="nonzero"/><path stroke-linecap="round" transform="matrix(0.0624174, 0, 0, -0.0624174, 57.103086, 279.677149)" fill="none" stroke-linejoin="round" d="M 2360.658949 1928.884388 L 2244.693141 1928.884388 L 2244.693141 1995.847915 L 2360.658949 1995.847915 Z M 2360.658949 1928.884388 " stroke="#181821" stroke-width="28" stroke-opacity="1" stroke-miterlimit="10"/><path fill="#000000" d="M 194.140625 139.367188 L 186.902344 139.367188 L 186.902344 135.1875 L 194.140625 135.1875 L 194.140625 139.367188 " fill-opacity="1" fill-rule="nonzero"/><path stroke-linecap="round" transform="matrix(0.0624174, 0, 0, -0.0624174, 57.103086, 279.677149)" fill="none" stroke-linejoin="round" d="M 2195.503111 2247.931171 L 2079.537303 2247.931171 L 2079.537303 2314.894698 L 2195.503111 2314.894698 Z M 2195.503111 2247.931171 " stroke="#181821" stroke-width="28" stroke-opacity="1" stroke-miterlimit="10"/><path fill="#000000" d="M 194.140625 146.007812 L 186.902344 146.007812 L 186.902344 141.828125 L 194.140625 141.828125 L 194.140625 146.007812 " fill-opacity="1" fill-rule="nonzero"/><path stroke-linecap="round" transform="matrix(0.0624174, 0, 0, -0.0624174, 57.103086, 279.677149)" fill="none" stroke-linejoin="round" d="M 2195.503111 2141.540522 L 2079.537303 2141.540522 L 2079.537303 2208.504048 L 2195.503111 2208.504048 Z M 2195.503111 2141.540522 " stroke="#181821" stroke-width="28" stroke-opacity="1" stroke-miterlimit="10"/><g fill="#ffcc00" fill-opacity="1"><g transform="translate(177.355099, 282.724376)"><g><path d="M 23.972656 -3.304688 L 6.285156 -3.304688 L 6.285156 0 L 23.972656 0 Z M 23.929688 -32.585938 L 5.820312 -32.585938 L 2.328125 -29.28125 L 23.929688 -29.28125 Z M 5.820312 -28.816406 L 2.328125 -28.816406 L 2.328125 -3.304688 L 5.820312 0 Z M 5.820312 -28.816406 "/></g></g></g><g fill="#ffcc00" fill-opacity="1"><g transform="translate(203.654997, 282.724376)"><g><path d="M 20.621094 -3.816406 L 24.113281 -3.816406 L 24.113281 -29.09375 L 20.621094 -32.585938 Z M 5.820312 -28.769531 L 2.328125 -28.769531 L 2.328125 -3.492188 L 5.820312 0 Z M 2.328125 -29.28125 L 20.109375 -29.28125 L 20.109375 -32.585938 L 5.914062 -32.585938 Z M 24.113281 -3.304688 L 6.332031 -3.304688 L 6.332031 0 L 20.53125 0 Z M 24.113281 -3.304688 "/></g></g></g><g fill="#ffcc00" fill-opacity="1"><g transform="translate(230.094541, 282.724376)"><g><path d="M 2.328125 0 L 20.015625 0 L 20.015625 -3.304688 L 2.328125 -3.304688 Z M 6.285156 -29.28125 L 23.972656 -29.28125 L 20.484375 -32.585938 L 6.285156 -32.585938 Z M 20.484375 0 L 23.972656 -3.304688 L 23.972656 -28.816406 L 20.484375 -28.816406 Z M 2.328125 -3.769531 L 5.820312 -3.769531 L 5.820312 -32.585938 L 2.328125 -32.585938 Z M 2.328125 -3.769531 "/></g></g></g><g fill="#ffcc00" fill-opacity="1"><g transform="translate(256.394439, 282.724376)"><g><path d="M 5.820312 -28.816406 L 2.328125 -28.816406 L 2.328125 -18.898438 L 4.097656 -17.269531 L 2.328125 -15.59375 L 2.328125 -3.304688 L 5.820312 0 L 5.820312 -15.59375 L 20.015625 -15.59375 L 20.015625 -18.898438 L 5.820312 -18.898438 Z M 23.929688 -32.585938 L 5.820312 -32.585938 L 2.328125 -29.28125 L 23.929688 -29.28125 Z M 23.972656 -3.304688 L 6.285156 -3.304688 L 6.285156 0 L 23.972656 0 Z M 23.972656 -3.304688 "/></g></g></g><g fill="#ffcc00" fill-opacity="1"><g transform="translate(282.694336, 282.724376)"><g><path d="M 23.371094 0 L 11.871094 -15.082031 L 7.449219 -15.082031 L 19.085938 0 Z M 2.328125 0 L 5.820312 0 L 5.820312 -28.816406 L 2.328125 -28.816406 Z M 2.328125 -29.28125 L 20.015625 -29.28125 L 20.015625 -32.585938 L 2.328125 -32.585938 Z M 7.402344 -15.546875 L 20.484375 -15.546875 L 23.972656 -18.855469 L 10.894531 -18.855469 Z M 20.484375 -19.320312 L 23.972656 -19.320312 L 23.972656 -29.28125 L 20.484375 -32.585938 Z M 20.484375 -19.320312 "/></g></g></g><g fill="#ffcc00" fill-opacity="1"><g transform="translate(308.994234, 282.724376)"><g><path d="M 21.320312 -32.585938 L 6.285156 -32.585938 L 6.285156 -29.28125 L 21.320312 -29.28125 Z M 22.207031 -13.128906 L 6.285156 -22.253906 L 6.285156 -18.339844 L 22.207031 -9.265625 Z M 5.820312 -32.585938 L 2.328125 -29.28125 L 2.328125 -21.972656 L 5.820312 -18.667969 Z M 2.328125 0 L 18.25 0 L 18.25 -3.304688 L 2.328125 -3.304688 Z M 18.714844 0 L 22.207031 -3.304688 L 22.207031 -8.796875 L 18.714844 -10.800781 Z M 18.714844 0 "/></g></g></g><g fill="#ffde59" fill-opacity="1"><g transform="translate(173.245965, 158.223423)"><g><path d="M 16.449219 -25.140625 L 4.847656 -25.140625 L 4.847656 -22.589844 L 16.449219 -22.589844 Z M 17.132812 -10.128906 L 4.847656 -17.167969 L 4.847656 -14.152344 L 17.132812 -7.148438 Z M 4.488281 -25.140625 L 1.796875 -22.589844 L 1.796875 -16.953125 L 4.488281 -14.402344 Z M 1.796875 0 L 14.078125 0 L 14.078125 -2.550781 L 1.796875 -2.550781 Z M 14.4375 0 L 17.132812 -2.550781 L 17.132812 -6.789062 L 14.4375 -8.332031 Z M 14.4375 0 "/></g></g><g transform="translate(192.174194, 158.223423)"><g><path d="M 1.796875 0 L 4.488281 0 L 4.488281 -25.140625 L 1.796875 -25.140625 Z M 4.847656 0 L 18.355469 0 L 18.355469 -2.550781 L 4.847656 -2.550781 Z M 4.847656 0 "/></g></g></g></svg>